<svg width="127" height="27" viewBox="0 0 127 27" fill="none" xmlns="http://www.w3.org/2000/svg">
<path d="M12.356 26.36C8.756 26.36 5.888 25.532 3.752 23.876C1.616 22.22 0.476 19.808 0.332 16.64C0.308 15.992 0.296 14.948 0.296 13.508C0.296 12.044 0.308 10.976 0.332 10.304C0.404 8.24 0.944 6.464 1.952 4.976C2.984 3.488 4.388 2.36 6.164 1.592C7.94 0.823999 10.004 0.439999 12.356 0.439999C14.708 0.439999 16.772 0.823999 18.548 1.592C20.324 2.36 21.716 3.488 22.724 4.976C23.756 6.464 24.308 8.24 24.38 10.304C24.428 11.648 24.452 12.716 24.452 13.508C24.452 14.3 24.428 15.344 24.38 16.64C24.236 19.808 23.096 22.22 20.96 23.876C18.824 25.532 15.956 26.36 12.356 26.36ZM12.356 19.34C13.172 19.34 13.808 19.1 14.264 18.62C14.744 18.14 14.996 17.408 15.02 16.424C15.068 15.032 15.092 14.012 15.092 13.364C15.092 12.668 15.068 11.672 15.02 10.376C14.996 9.392 14.744 8.66 14.264 8.18C13.784 7.7 13.148 7.46 12.356 7.46C11.564 7.46 10.928 7.7 10.448 8.18C9.968 8.66 9.716 9.392 9.692 10.376C9.668 11.024 9.656 12.02 9.656 13.364C9.656 14.708 9.668 15.728 9.692 16.424C9.716 17.408 9.956 18.14 10.412 18.62C10.892 19.1 11.54 19.34 12.356 19.34ZM27.9868 26C27.7228 26 27.4948 25.904 27.3028 25.712C27.1108 25.52 27.0148 25.292 27.0148 25.028V20.888C27.0148 20.384 27.2068 19.964 27.5908 19.628L34.7548 13.472L28.2388 13.472C27.9748 13.472 27.7468 13.376 27.5548 13.184C27.3628 12.992 27.2668 12.764 27.2668 12.5V8.252C27.2668 7.988 27.3628 7.76 27.5548 7.568C27.7468 7.376 27.9748 7.28 28.2388 7.28L44.1508 7.28C44.4148 7.28 44.6428 7.376 44.8348 7.568C45.0268 7.76 45.1228 7.988 45.1228 8.252V12.788C45.1228 13.196 44.9548 13.544 44.6188 13.832L37.7788 19.808H44.9068C45.1708 19.808 45.3988 19.904 45.5908 20.096C45.7828 20.288 45.8788 20.516 45.8788 20.78V25.028C45.8788 25.292 45.7828 25.52 45.5908 25.712C45.3988 25.904 45.1708 26 44.9068 26H27.9868ZM58.3685 26.36C51.7685 26.36 48.2885 23.684 47.9285 18.332C47.9045 17.972 47.8925 17.408 47.8925 16.64C47.8925 15.872 47.9045 15.308 47.9285 14.948C48.0965 12.332 49.0925 10.34 50.9165 8.972C52.7405 7.604 55.2245 6.92 58.3685 6.92C61.5125 6.92 63.9965 7.604 65.8205 8.972C67.6445 10.34 68.6405 12.332 68.8085 14.948C68.8565 15.668 68.8805 16.232 68.8805 16.64C68.8805 17.048 68.8565 17.612 68.8085 18.332C68.4485 23.684 64.9685 26.36 58.3685 26.36ZM58.3685 20.6C59.0165 20.6 59.4365 20.432 59.6285 20.096C59.8205 19.736 59.9405 19.088 59.9885 18.152C60.0125 17.912 60.0245 17.408 60.0245 16.64C60.0245 15.872 60.0125 15.368 59.9885 15.128C59.9165 14.216 59.7845 13.58 59.5925 13.22C59.4005 12.86 58.9925 12.68 58.3685 12.68C57.7445 12.68 57.3365 12.86 57.1445 13.22C56.9525 13.58 56.8205 14.216 56.7485 15.128L56.7125 16.64L56.7485 18.152C56.7965 19.088 56.9165 19.736 57.1085 20.096C57.3005 20.432 57.7205 20.6 58.3685 20.6ZM72.5022 26C72.2382 26 72.0102 25.904 71.8182 25.712C71.6262 25.52 71.5302 25.292 71.5302 25.028V8.252C71.5302 7.988 71.6262 7.76 71.8182 7.568C72.0102 7.376 72.2382 7.28 72.5022 7.28H78.8022C79.0662 7.28 79.2942 7.376 79.4862 7.568C79.6782 7.76 79.7742 7.988 79.7742 8.252V9.44C80.3982 8.696 81.2382 8.096 82.2942 7.64C83.3742 7.16 84.5262 6.92 85.7502 6.92C87.0222 6.92 88.1862 7.22 89.2422 7.82C90.2982 8.396 91.1382 9.296 91.7622 10.52C92.4102 11.744 92.7342 13.268 92.7342 15.092V25.028C92.7342 25.292 92.6382 25.52 92.4462 25.712C92.2542 25.904 92.0262 26 91.7622 26H84.8862C84.6222 26 84.3942 25.904 84.2022 25.712C84.0102 25.52 83.9142 25.292 83.9142 25.028V15.344C83.9142 14.696 83.7582 14.204 83.4462 13.868C83.1342 13.532 82.6902 13.364 82.1142 13.364C81.5382 13.364 81.0942 13.532 80.7822 13.868C80.4702 14.204 80.3142 14.696 80.3142 15.344V25.028C80.3142 25.292 80.2182 25.52 80.0262 25.712C79.8342 25.904 79.6062 26 79.3422 26H72.5022ZM105.472 26.36C102.208 26.36 99.676 25.568 97.876 23.984C96.076 22.376 95.176 19.94 95.176 16.676V16.424C95.224 13.376 96.16 11.036 97.984 9.404C99.832 7.748 102.316 6.92 105.436 6.92C107.692 6.92 109.588 7.364 111.124 8.252C112.684 9.116 113.836 10.292 114.58 11.78C115.324 13.244 115.696 14.888 115.696 16.712V17.792C115.696 18.056 115.6 18.284 115.408 18.476C115.216 18.668 114.988 18.764 114.724 18.764H103.996V18.944C103.996 19.688 104.104 20.24 104.32 20.6C104.536 20.96 104.896 21.14 105.4 21.14C105.592 21.14 105.748 21.104 105.868 21.032C105.988 20.936 106.18 20.756 106.444 20.492C106.66 20.276 106.84 20.144 106.984 20.096C107.128 20.024 107.344 19.988 107.632 19.988H114.436C114.652 19.988 114.832 20.06 114.976 20.204C115.144 20.324 115.228 20.492 115.228 20.708C115.228 21.38 114.856 22.172 114.112 23.084C113.368 23.972 112.252 24.74 110.764 25.388C109.3 26.036 107.536 26.36 105.472 26.36ZM106.876 14.264V14.228C106.876 12.716 106.396 11.96 105.436 11.96C104.476 11.96 103.996 12.716 103.996 14.228V14.264H106.876ZM119.082 26C118.818 26 118.59 25.904 118.398 25.712C118.206 25.52 118.11 25.292 118.11 25.028V18.764C118.11 18.5 118.206 18.272 118.398 18.08C118.59 17.888 118.818 17.792 119.082 17.792L125.346 17.792C125.61 17.792 125.838 17.888 126.03 18.08C126.222 18.272 126.318 18.5 126.318 18.764V25.028C126.318 25.292 126.222 25.52 126.03 25.712C125.838 25.904 125.61 26 125.346 26H119.082Z" fill="#111111"/>
</svg>
